<?xml version="1.0" encoding="UTF-8" standalone="no"?>
<!-- Generator: Adobe Illustrator 14.0.0, SVG Export Plug-In . SVG Version: 6.00 Build 43363)  -->

<svg
   xmlns:dc="http://purl.org/dc/elements/1.1/"
   xmlns:cc="http://creativecommons.org/ns#"
   xmlns:rdf="http://www.w3.org/1999/02/22-rdf-syntax-ns#"
   xmlns:svg="http://www.w3.org/2000/svg"
   xmlns="http://www.w3.org/2000/svg"
   xmlns:sodipodi="http://sodipodi.sourceforge.net/DTD/sodipodi-0.dtd"
   xmlns:inkscape="http://www.inkscape.org/namespaces/inkscape"
   version="1.1"
   id="Layer_1"
   x="0px"
   y="0px"
   width="507.361594147"
   height="197.098087742"
   viewBox="0 0 1869.948 726.43097"
   enable-background="new 0 0 1920 1080"
   xml:space="preserve"
   inkscape:version="0.91 r13725"
   sodipodi:docname="Interflug.svg"
   inkscape:export-filename="/home/flow/io/mingkwai-rack/interflug/artwork/Interflug.svg.png"
   inkscape:export-xdpi="177.39"
   inkscape:export-ydpi="177.39"><metadata
     id="metadata93"><rdf:RDF><cc:Work
         rdf:about=""><dc:format>image/svg+xml</dc:format><dc:type
           rdf:resource="http://purl.org/dc/dcmitype/StillImage" /></cc:Work></rdf:RDF></metadata><defs
     id="defs91" /><sodipodi:namedview
     pagecolor="#ffffff"
     bordercolor="#666666"
     borderopacity="1"
     objecttolerance="10"
     gridtolerance="10"
     guidetolerance="10"
     inkscape:pageopacity="0"
     inkscape:pageshadow="2"
     inkscape:window-width="1366"
     inkscape:window-height="714"
     id="namedview89"
     showgrid="false"
     fit-margin-top="0"
     fit-margin-left="0"
     fit-margin-right="0"
     fit-margin-bottom="0"
     inkscape:zoom="1.3678117"
     inkscape:cx="123.26607"
     inkscape:cy="173.44235"
     inkscape:window-x="0"
     inkscape:window-y="0"
     inkscape:window-maximized="1"
     inkscape:current-layer="Layer_1" /><g
     id="g21"
     transform="translate(-138.70805,250.34417)"><g
       id="g23"><path
         d="m 1322.299,288.654 52.089,30.569 -22.646,5.664 c 0,0 -96.8,-38.431 -117.905,-38.431 -22.225,0 -22.925,0.146 -78.549,-0.564 17.802,22.761 51.327,44.081 93.049,56.564 70.268,21.032 137.158,9.035 149.408,-26.789 3.774,-11.052 1.892,-23.078 -4.556,-35.05 l -70.89,8.037 z m -15.07,-71.083 c -4.724,-1.729 -9.567,-3.353 -14.545,-4.843 -70.268,-21.032 -137.159,-9.036 -149.408,26.784 -4.342,12.696 -1.203,26.674 7.739,40.375 41.308,-2.494 94.276,-8.102 110.146,-20.669 14.038,-11.113 31.985,-27.951 46.068,-41.647 z m -99.036,56.015 -47.021,-26.484 24.623,-1.401 c 0,0 42.888,11.028 65.628,18.158 10e-4,0 -22.436,6.346 -43.23,9.727 z m 181.662,1.493 c -11.752,-17.878 -33.42,-35.254 -61.477,-48.646 l -24.19,46.371 85.667,2.275 z m -276.389,-102.19 -64.188,213.483 366.796,0 64.185,-213.483 -366.793,0 z M 1404.6,310.893 c -11.098,40.086 -80.899,57.776 -155.896,39.51 -50.617,-12.329 -90.635,-37.886 -107.912,-65.519 l -47.652,-1.667 c 0,0 21.981,-1.498 45.149,-2.636 -6.403,-11.961 -8.515,-24.2 -5.29,-35.834 11.102,-40.082 80.903,-57.771 155.9,-39.51 8.222,2.001 16.149,4.376 23.764,7.028 10.362,-10.188 17.565,-17.584 17.565,-17.584 l 14.724,0 -13.145,25.185 c 32.318,14.524 56.589,34.573 67.656,55.466 l 32.665,0.869 -30.554,3.462 c 4.605,10.482 5.836,21.087 3.026,31.23 z"
         id="path25"
         inkscape:connector-curvature="0"
         style="fill:#e32718" /></g></g><g
     id="g3487"><polygon
       transform="translate(-15.096,-172.889)"
       style="fill:#e32718"
       id="polygon3"
       points="15.096,570.787 108.908,570.787 155.814,417.727 62.002,417.727 " /><polygon
       transform="translate(-15.096,-172.889)"
       style="fill:#e32718"
       id="polygon5"
       points="201.805,414.552 154.901,567.612 195.312,567.612 222.044,480.385 248.769,567.593 342.58,567.593 342.563,567.543 342.601,567.543 389.505,414.478 349.093,414.478 322.376,501.66 295.676,414.533 201.865,414.533 201.87,414.552 " /><polygon
       transform="translate(-15.096,-172.889)"
       style="fill:#e32718"
       id="polygon7"
       points="402.795,444.993 442.949,444.993 405.155,568.318 498.966,568.318 536.761,444.993 575.605,444.993 585.481,415.367 545.839,415.367 545.873,415.258 452.062,415.258 452.027,415.367 412.67,415.367 " /><polygon
       transform="translate(-15.096,-172.889)"
       style="fill:#e32718"
       id="polygon9"
       points="656.966,568.318 656.966,568.312 704.243,568.312 714.119,538.688 666.044,538.688 675.592,507.536 722.685,507.536 732.56,477.911 684.67,477.911 694.785,444.908 742.02,444.908 751.895,415.282 703.863,415.282 703.87,415.258 610.059,415.258 563.155,568.318 " /><polygon
       transform="translate(-15.096,-172.889)"
       style="fill:#e32718"
       id="polygon11"
       points="1269.213,565.844 1316.488,565.844 1326.362,536.224 1278.288,536.224 1316.115,412.79 1222.306,412.79 1175.399,565.849 1269.208,565.849 " /><polygon
       transform="translate(-15.096,-172.889)"
       style="fill:#e32718"
       id="polygon13"
       points="1088.991,570.787 1107.619,510.006 1154.711,510.006 1164.585,480.38 1116.7,480.38 1126.813,447.377 1174.049,447.377 1183.923,417.752 1135.894,417.752 1135.898,417.727 1042.089,417.727 995.178,570.787 " /><g
       transform="translate(-15.096,-172.889)"
       id="g15"><g
         id="g17"><path
           style="fill:#e32718"
           inkscape:connector-curvature="0"
           id="path19"
           d="m 965.15,415.104 -85.999,0.153 h -93.814 l -46.904,153.061 h 93.812 l 17.958,-58.601 24.636,58.601 h 86.921 l -24.348,-55.804 c 23.339,0 34.834,-8.455 40.248,-15.558 5.414,-7.104 11.838,-18.603 17.59,-51.412 5.75,-32.81 -30.1,-30.44 -30.1,-30.44 z m -69.583,64.049 h -37.033 l 9.876,-29.625 h 37.031 l -9.874,29.625 z" /></g></g><path
       style="fill:#e32718"
       inkscape:connector-curvature="0"
       id="path27"
       d="m 1500.742,242.518 -37.736,123.151 h -40.52 l 37.807,-123.37 h -93.809 l -37.3,121.706 c 0,0 -5.698,13.525 -1.252,21.523 4.059,7.307 8.896,9.766 18.052,9.836 h 67.402 l 0.02,-0.07 h 40.523 l -0.09,0.283 h 93.814 l 46.903,-153.06 h -93.814 z" /><path
       style="fill:#e32718"
       inkscape:connector-curvature="0"
       id="path29"
       d="m 1860.074,274.488 9.874,-29.625 h -140.72 l -67.249,0.188 c -23.764,0 -27.98,19.164 -27.98,19.164 0,0 -26.83,91.608 -29.13,101.19 -2.301,9.587 -1.917,13.799 2.3,20.699 5.201,8.499 14.122,9.324 14.122,9.324 l 47.568,0.024 h 140.715 l 0.01,-0.024 h 12.34 l 27.99,-91.341 h -93.808 l -18.927,61.74 h -36.227 l 28.275,-91.34 h 130.847 z" /></g></svg>